<svg width="466" height="400" viewBox="0 0 466 400" fill="none" xmlns="http://www.w3.org/2000/svg">
    <path d="M300 0L0 4.82053e-06V100H100V400H200V100H300V0Z"/>
    <path fill-rule="evenodd" clip-rule="evenodd"
          d="M388.582 157.403C396.12 139.204 400 119.698 400 100H300C300 106.566 298.707 113.068 296.194 119.134C293.681 125.2 289.998 130.712 285.355 135.355C280.712 139.998 275.2 143.681 269.134 146.194C263.068 148.707 256.566 150 250 150L250 250C269.698 250 289.204 246.12 307.403 238.582C325.601 231.044 342.137 219.995 356.066 206.066C369.995 192.137 381.044 175.601 388.582 157.403Z"
    />
    <path d="M350 400L300 300H415.5L465.5 400H350Z"/>
    <style>
        path {
        fill: #fd5623;
        }
        @media (prefers-color-scheme: dark) {
        path {
        fill: #fe9474;
        }
        }
    </style>
</svg>
